Coordinates
version=1
nRows=20
nColumns=34
inDegrees=yes

Units are S.I. units (second, meters, Newtons, ...)
If the header above contains a line with 'inDegrees', this indicates whether rotational values are in degrees (yes) or radians (no).

endheader
time	pelvis_tilt	pelvis_list	pelvis_rotation	pelvis_tx	pelvis_ty	pelvis_tz	hip_flexion_r	hip_adduction_r	hip_rotation_r	knee_angle_r	ankle_angle_r	subtalar_angle_r	mtp_angle_r	hip_flexion_l	hip_adduction_l	hip_rotation_l	knee_angle_l	ankle_angle_l	subtalar_angle_l	mtp_angle_l	lumbar_extension	lumbar_bending	lumbar_rotation	arm_flex_r	arm_add_r	arm_rot_r	elbow_flex_r	pro_sup_r	arm_flex_l	arm_add_l	arm_rot_l	elbow_flex_l	pro_sup_l
      8.95000000	      7.62957679	      2.29128034	    -77.48475240	      0.92218767	      0.89121237	     -0.23906129	     28.68710817	    -25.57107676	      3.99480662	      2.57796111	    -22.39021720	    -23.17175561	      0.00000000	     -7.08498718	     16.70778274	    -20.56567572	     22.16069399	      4.92033796	     35.00000000	      0.00000000	    -22.77418752	    -14.25499138	     -9.80532107	      9.80160580	    -22.10347823	     70.77111968	     52.71970693	     91.58648236	      9.08124172	    -42.53362636	     46.72765596	     45.64086478	     47.31079268
      8.96666670	      7.99288121	      2.86035611	    -77.26224939	      0.91707433	      0.88858471	     -0.23652184	     28.72817264	    -25.35338496	      4.14540401	      3.82448809	    -26.91628159	    -28.37153168	      0.00000000	     -5.48911184	     14.70547244	    -23.27825805	     26.72701524	      5.19957689	     35.00000000	      0.00000000	    -22.13484899	    -14.72032538	     -9.97435222	      9.57888425	    -21.69774102	     70.22270570	     51.55467435	     90.51647460	      9.17345919	    -42.37949750	     46.66011157	     44.80774520	     46.65582546
      8.98333330	      8.10613727	      3.44499488	    -77.05371424	      0.91318185	      0.88644694	     -0.23300999	     28.92795330	    -24.55877319	      4.76217587	      5.64687679	    -30.56857408	    -33.20305630	      0.00000000	     -3.55500232	     11.95194280	    -26.26623338	     32.31875074	      4.88978793	     35.00000000	      0.00000000	    -21.42173433	    -15.04191261	    -10.02908981	      9.38728908	    -21.70871466	     69.85138946	     51.32451845	     89.65203917	      9.22436533	    -42.31106440	     46.55556140	     44.01738363	     45.96012281
      9.00000000	      8.21015348	      3.60444717	    -76.95639904	      0.91161048	      0.88855714	     -0.22987716	     28.68330044	    -23.67722379	      5.35035339	      7.54787676	    -31.96800628	    -35.00000000	      0.00000000	     -2.23596389	      9.17195378	    -28.57174967	     37.59376805	      3.72537832	     35.00000000	      0.00000000	    -21.20046213	    -15.20598728	    -10.00973374	      9.46702081	    -22.07611295	     69.62349660	     51.45959828	     89.28846917	      9.14898414	    -42.25938196	     46.51325602	     43.48067751	     45.56219901
      9.01666670	      8.24959700	      4.04519461	    -76.78133240	      0.91156563	      0.89073396	     -0.22598888	     28.64571523	    -22.98058610	      6.07307146	      9.31675870	    -31.91930563	    -35.00000000	      0.00000000	     -0.66422729	      6.82337455	    -29.44622734	     42.15420599	      1.85007489	     35.00000000	      0.00000000	    -20.47055008	    -15.32086272	     -9.89978852	      9.20570182	    -22.75111852	     69.40840834	     52.18877645	     88.82274308	      9.07203430	    -41.85086682	     46.37226505	     42.60957982	     44.84872528
      9.03333330	      8.46055263	      3.93012306	    -76.72972630	      0.91030619	      0.89598955	     -0.22284385	     27.74813997	    -22.43167059	      6.79711834	     10.49805192	    -31.81773507	    -35.00000000	      0.00000000	      0.38592831	      4.90069948	    -29.21462247	     45.92168432	     -1.48981102	     35.00000000	      0.00000000	    -20.48605648	    -15.50686968	     -9.82128803	      9.04954776	    -23.15378038	     69.33237257	     52.53065880	     88.65731322	      8.87609452	    -41.57130215	     46.36943559	     42.09395137	     44.50251588
      9.05000000	      8.54428187	      4.01265246	    -76.80690636	      0.90765109	      0.89731092	     -0.21783131	     27.01368252	    -21.93377522	      7.09680190	     11.30996110	    -31.68053946	    -35.00000000	      0.00000000	      2.32887572	      2.69982036	    -28.11113522	     50.33938678	     -5.30076690	     35.00000000	      0.00000000	    -20.05441900	    -15.72379728	     -9.57322690	      8.62229969	    -23.35904682	     69.20945433	     53.37603638	     88.30572878	      8.67852319	    -40.98460878	     46.19944150	     40.92326546	     43.54110002
      9.06666670	      8.50068915	      3.79580453	    -77.06525779	      0.90069458	      0.90112694	     -0.21363413	     25.87671246	    -21.22085408	      6.87049951	     11.78193370	    -30.69475776	    -35.00000000	      0.00000000	      4.64140744	     -0.43336248	    -26.73478091	     55.65843382	     -9.70997842	     35.00000000	      0.00000000	    -19.92469180	    -15.94095350	     -9.15765086	      8.37895463	    -22.89021989	     69.19246495	     53.29226161	     88.10615856	      8.42234678	    -40.67791580	     46.09237847	     40.36043545	     42.93285758
      9.08333330	      8.25932968	      3.81776135	    -77.35503237	      0.89160591	      0.90475391	     -0.21053646	     25.34587315	    -20.37361966	      6.42948709	     12.68833417	    -28.83739633	    -35.00000000	      0.00000000	      7.61850761	     -4.34694439	    -25.24201561	     61.58846728	    -13.32656659	     35.00000000	      0.00000000	    -19.56674637	    -16.04035831	     -8.69068084	      8.30108504	    -22.13515634	     68.79672697	     52.25448803	     87.55212356	      8.20855338	    -40.22656570	     45.57581383	     39.32434404	     41.45358692
      9.10000000	      7.81459266	      3.23749554	    -77.68699109	      0.88552282	      0.90617304	     -0.20798780	     24.41471811	    -19.29956745	      6.12842691	     13.92290135	    -26.54965835	    -35.00000000	      0.00000000	      9.89390781	     -8.57588715	    -23.85785274	     67.10742951	    -15.29319860	     35.00000000	      0.00000000	    -19.97595272	    -15.64187502	     -8.07152720	      8.67373246	    -22.26607866	     68.41065420	     51.58094674	     87.35084761	      8.18549453	    -40.17130486	     45.32443615	     39.22431687	     41.04288280
      9.11666670	      7.16368337	      3.19204213	    -77.88547869	      0.88114065	      0.90827543	     -0.20695025	     24.32865043	    -18.30607811	      5.91596644	     15.58872634	    -24.36971538	    -35.00000000	      0.00000000	     12.74327510	    -12.44997063	    -22.44419211	     72.02969326	    -14.64536108	     35.00000000	      0.00000000	    -19.60442323	    -15.21434632	     -7.53149110	      8.75805187	    -22.92671525	     67.26090170	     51.99624627	     86.64720812	      8.06832227	    -39.95109567	     44.35313914	     38.84703543	     39.47559047
      9.13333330	      6.41384823	      2.51807908	    -78.15850913	      0.87332586	      0.91203890	     -0.20515392	     23.64204717	    -17.01836868	      5.39868867	     17.36557449	    -22.67789776	    -35.00000000	      0.00000000	     14.77449211	    -16.14823939	    -21.25479610	     75.96695248	    -11.92071203	     35.00000000	      0.00000000	    -19.97877074	    -14.76747377	     -6.74587032	      9.18734348	    -23.54777700	     67.50128841	     54.54269564	     86.54073325	      8.24375787	    -40.18451586	     44.09345045	     39.16229571	     38.67666406
      9.15000000	      5.46697273	      1.96994924	    -78.61757296	      0.86227531	      0.91268460	     -0.19978245	     23.10948768	    -15.36874645	      4.28120639	     19.26596973	    -21.23335646	    -35.00000000	      0.00000000	     16.67204619	    -19.63240166	    -20.25423562	     78.80709073	     -7.93871905	     35.00000000	      0.00000000	    -19.51340553	    -14.75487427	     -5.62271506	      8.59506254	    -23.50973139	     69.04481931	     59.76225154	     86.83418581	      8.08958855	    -40.73680993	     43.92586166	     39.61024967	     38.01020036
      9.16666670	      5.05824841	      1.47166782	    -79.23364745	      0.85347558	      0.91486926	     -0.19693718	     22.57344692	    -14.30564087	      2.92505301	     21.03982238	    -20.17997507	    -35.00000000	      0.00000000	     18.30933215	    -21.30831886	    -19.46912691	     80.40403647	     -5.23549889	     29.34191989	      0.00000000	    -19.42158760	    -15.34070554	     -4.71974429	      8.33008645	    -22.25883886	     71.37648338	     65.43013406	     87.57602603	      7.84760802	    -41.19791914	     43.67467646	     39.84572220	     36.91392846
      9.18333330	      4.88554886	      1.01073987	    -79.94085791	      0.85029851	      0.91968771	     -0.19764369	     21.70716762	    -13.77348165	      1.11792034	     21.96636230	    -20.43348243	    -35.00000000	      0.00000000	     19.66740078	    -21.68723093	    -18.84018842	     80.97486235	     -4.06112172	     24.46250857	      0.00000000	    -19.34853586	    -16.09349452	     -3.83717177	      8.36651281	    -20.33942868	     74.27445027	     69.23110036	     88.70594681	      7.69034099	    -41.46724827	     43.15629644	     39.96696669	     35.44855365
      9.20000000	      5.10686655	      0.64368954	    -80.60632065	      0.84900927	      0.92471655	     -0.19861948	     20.56667138	    -13.93441531	     -0.66418752	     22.17281062	    -21.55115891	    -35.00000000	      0.00000000	     20.51685899	    -20.94429578	    -18.70865921	     80.35920667	     -4.01615373	     23.10610560	      0.00000000	    -19.41381754	    -17.08837736	     -3.35885076	      8.68112998	    -18.26020530	     77.49533514	     71.13615552	     90.47268395	      7.37044314	    -41.71380733	     42.30004948	     40.10358147	     33.12463591
      9.21666670	      5.48791663	      0.53383421	    -81.26993119	      0.84389389	      0.92803663	     -0.19787979	     19.52129391	    -14.20481057	     -2.08619228	     21.86962613	    -22.80933001	    -35.00000000	      0.00000000	     21.19828022	    -19.61460963	    -18.84562673	     79.02733874	     -4.26697763	     24.36112311	      0.00000000	    -19.14908033	    -18.27992038	     -2.56545736	      7.99301404	    -16.61579089	     78.39563877	     72.18742446	     90.70829815	      7.48104295	    -41.99630659	     42.07583418	     40.08240683	     32.86120338
      9.23333330	      5.75031838	      0.56069412	    -81.86730293	      0.83398557	      0.93187424	     -0.19712085	     18.18987545	    -13.74157153	     -1.71932188	     20.55874876	    -23.58260208	    -35.00000000	      0.00000000	     21.84445535	    -18.02234285	    -18.81709173	     76.29033129	     -3.32658409	     26.97399946	      0.00000000	    -18.76650474	    -19.41970299	     -2.04462995	      7.45963357	    -15.55734420	     79.65881773	     73.28392944	     91.05784741	      7.47687955	    -42.66014626	     42.02890861	     39.96876812	     32.55914794
      9.25000000	      5.57670105	      0.73603060	    -82.09973342	      0.82545420	      0.93483277	     -0.19755198	     16.46563057	    -12.34191135	      1.16637417	     18.23357122	    -23.84987921	    -35.00000000	      0.00000000	     23.01356708	    -16.44478436	    -17.72378545	     72.71272884	     -0.36526964	     27.68814161	      0.00000000	    -18.22333278	    -19.96465299	     -1.77498071	      6.95275503	    -15.45796567	     80.44850001	     74.14716785	     91.27129019	      7.39355595	    -43.45577108	     42.07502647	     39.84890725	     32.41309521
      9.26666670	      5.13102424	      0.80522966	    -82.37225339	      0.82209011	      0.93715552	     -0.20177606	     14.62781328	    -10.85726343	      6.92115207	     15.93279901	    -23.14594910	    -35.00000000	      0.00000000	     24.36439752	    -15.10981731	    -15.88048908	     68.60551551	      4.25166502	     25.29794201	      0.00000000	    -18.12120971	    -19.67802707	     -1.68444579	      7.82200459	    -17.80333099	     81.44009329	     76.30772638	     91.90869233	      7.64758487	    -43.92077502	     42.70528615	     40.06797916	     32.05757000
